<svg width="126" height="100" viewBox="0 0 126 100" fill="none" xmlns="http://www.w3.org/2000/svg">
  <path fill-rule="evenodd" clip-rule="evenodd"
    d="M7.82231 7.32231C0.5 14.6447 0.5 26.4298 0.5 50C0.5 73.57 0.5 85.3556 7.82231 92.6775C15.1447 100 26.9298 100 50.5 100H75.5C99.07 100 110.856 100 118.177 92.6775C125.5 85.3556 125.5 73.57 125.5 50C125.5 26.4298 125.5 14.6447 118.177 7.32231C110.856 -9.53674e-07 99.07 0 75.5 0H50.5C26.9298 0 15.1447 -9.53674e-07 7.82231 7.32231ZM104.101 21.9991C105.758 23.9879 105.489 26.9437 103.501 28.6011L89.7731 40.0412C84.2331 44.6575 79.7431 48.3994 75.78 50.9481C71.6519 53.6031 67.6319 55.2806 63 55.2806C58.3681 55.2806 54.3481 53.6031 50.2199 50.9481C46.257 48.3994 41.7669 44.6575 36.2272 40.0412L22.4991 28.6011C20.5103 26.9437 20.2416 23.9879 21.8989 21.9991C23.5563 20.0103 26.5121 19.7416 28.5009 21.3989L41.9939 32.6432C47.8249 37.5025 51.8731 40.865 55.2912 43.0631C58.5994 45.1912 60.8431 45.9056 63 45.9056C65.1569 45.9056 67.4006 45.1912 70.7088 43.0631C74.1269 40.865 78.175 37.5025 84.0062 32.6432L97.4994 21.3989C99.4881 19.7416 102.444 20.0103 104.101 21.9991Z"
    fill="#4F46E5" />
</svg>